<?xml version="1.0" encoding="utf-8"?>
<svg viewBox="0 0 600 600" fill="white" xmlns="http://www.w3.org/2000/svg">
  <defs>
    <clipPath id="circular-border">
      <path d="M17 2H13V1H11V2H7C5.34315 2 4 3.34315 4 5V8C4 10.7614 6.23858 13 9 13H15C17.7614 13 20 10.7614 20 8V5C20 3.34315 18.6569 2 17 2ZM11 7.5C11 8.32843 10.3284 9 9.5 9C8.67157 9 8 8.32843 8 7.5C8 6.67157 8.67157 6 9.5 6C10.3284 6 11 6.67157 11 7.5ZM16 7.5C16 8.32843 15.3284 9 14.5 9C13.6716 9 13 8.32843 13 7.5C13 6.67157 13.6716 6 14.5 6C15.3284 6 16 6.67157 16 7.5ZM4 22C4 17.5817 7.58172 14 12 14C16.4183 14 20 17.5817 20 22H4Z"/>
      <circle cx="300" cy="300" r="250"/>
    </clipPath>
  </defs>
  <circle cx="300" cy="300" r="280" fill="black"/>
  <circle cx="300" cy="550" r="190" clip-path="url(#circular-border)"/>
  <g transform="matrix(12.500000953674316, 0, 0, 10.97560977935791, 150.00000000000003, 100.51219177246095)" style="">
    <defs/>
    <path d="M13.5 2C13.5 2.44425 13.3069 2.84339 13 3.11805V5H18C19.6569 5 21 6.34315 21 8V18C21 19.6569 19.6569 21 18 21H6C4.34315 21 3 19.6569 3 18V8C3 6.34315 4.34315 5 6 5H11V3.11805C10.6931 2.84339 10.5 2.44425 10.5 2C10.5 1.17157 11.1716 0.5 12 0.5C12.8284 0.5 13.5 1.17157 13.5 2ZM0 10H2V16H0V10ZM24 10H22V16H24V10ZM9 14.5C9.82843 14.5 10.5 13.8284 10.5 13C10.5 12.1716 9.82843 11.5 9 11.5C8.17157 11.5 7.5 12.1716 7.5 13C7.5 13.8284 8.17157 14.5 9 14.5ZM16.5 13C16.5 12.1716 15.8284 11.5 15 11.5C14.1716 11.5 13.5 12.1716 13.5 13C13.5 13.8284 14.1716 14.5 15 14.5C15.8284 14.5 16.5 13.8284 16.5 13Z"/>
  </g>
</svg>