<?xml version="1.0" encoding="utf-8"?>
<svg viewBox="127.578 100.8379 493.052 163.5485" xmlns="http://www.w3.org/2000/svg" xmlns:bx="https://boxy-svg.com">
  <defs>
    <style bx:fonts="Bruno Ace SC">@import url(https://fonts.googleapis.com/css2?family=Bruno+Ace+SC%3Aital%2Cwght%400%2C400&amp;display=swap);</style>
    <style bx:fonts="Montserrat">@import url(https://fonts.googleapis.com/css2?family=Montserrat%3Aital%2Cwght%400%2C100%3B0%2C200%3B0%2C300%3B0%2C400%3B0%2C500%3B0%2C600%3B0%2C700%3B0%2C800%3B0%2C900%3B1%2C100%3B1%2C200%3B1%2C300%3B1%2C400%3B1%2C500%3B1%2C600%3B1%2C700%3B1%2C800%3B1%2C900&amp;display=swap);</style>
  </defs>
  <g id="#1c1d1eff" style="" transform="matrix(1, 0, 0, 1, 0, -0.20208701491355185)">
    <path fill="#1c1d1e" opacity="1.00" d="M 439.21 141.13 C 457.87 127.84 476.32 114.24 495.04 101.04 C 477.69 114.05 460.2 126.88 442.78 139.8 C 440.54 141.6 437.51 143.01 436.63 145.96 C 436.03 150.39 440.15 154.38 444.48 154.41 C 467.19 157.98 489.81 162.14 512.43 166.25 C 519.18 166.92 525.89 164.2 531.15 160.11 C 548.05 147.95 564.97 135.82 582.01 123.86 C 584.47 122.08 587.42 120.65 588.96 117.9 C 590.36 114.74 589.2 111.28 588.09 108.23 C 593.41 112 598.91 115.85 602.62 121.34 C 605.06 124.52 605.61 128.57 606.59 132.34 C 609.75 145.91 612.95 159.48 616.24 173.01 C 617.09 179.39 619.92 185.33 620.63 191.72 C 615.1 170.8 610 149.69 604.6 128.7 C 603.74 122.22 594.7 122.58 590.52 125.57 C 571.45 139.14 552.43 152.77 533.4 166.39 C 528.7 169.51 529.09 175.98 530.2 180.82 C 534.3 198.16 538.27 215.59 542.26 232.91 C 542.825 236.26 544.52 242.44 544.52 242.44 C 545.91 250.63 556.68 255.66 563.63 250.59 C 579.87 238.99 596.05 227.29 612.26 215.65 C 613.1 215.13 613.99 214.65 614.86 214.14 C 597.62 226.42 580.78 239.26 563.7 251.76 C 557.6 256.03 551.96 261.28 544.91 263.93 C 537.01 265.52 528.93 263.74 520.97 263.67 C 520.66 261.21 523.3 260.78 524.88 259.88 C 529.22 258.25 533.21 254.89 534.24 250.19 C 535.153 245.83 533.552 242.304 532.69 238.18 C 528.66 221.55 524.92 204.83 521 188.17 C 519.69 181.45 517.49 171.89 509.11 171.37 C 488.52 167.99 467.94 164.54 447.36 161.13 C 443.13 160.34 438.44 159.27 434.4 161.35 C 431.61 162.6 429.91 165.28 428.63 167.93 C 428.46 158.26 430.34 146.71 439.21 141.13 Z"/>
    <path d="M 462.846 144.074 C 460.145 146.515 455.214 147.932 451.829 147.238 C 448.438 146.546 447.883 144.008 450.58 141.57 C 453.274 139.127 458.207 137.712 461.594 138.403 C 464.984 139.096 465.54 141.635 462.846 144.074 Z" style="fill: rgb(28, 29, 30); transform-origin: 519.238px 127.364px;" transform="matrix(0.999848, -0.017452, 0.017452, 0.999848, 0, 0)"/>
    <path d="M 514.146 107.213 C 511.445 109.655 506.514 111.071 503.129 110.378 C 499.738 109.685 499.183 107.147 501.879 104.708 C 504.574 102.267 509.507 100.851 512.894 101.543 C 516.284 102.235 516.84 104.774 514.146 107.213 Z" style="fill: rgb(28, 29, 30); transform-origin: 570.538px 90.503px;" transform="matrix(0.999848, -0.017452, 0.017452, 0.999848, 0, 0)"/>
    <path d="M 577.291 116.058 C 574.589 118.498 569.658 119.914 566.273 119.221 C 562.884 118.529 562.327 115.99 565.024 113.552 C 567.718 111.11 572.651 109.695 576.039 110.386 C 579.429 111.078 579.984 113.618 577.291 116.058 Z" style="fill: rgb(28, 29, 30); transform-origin: 633.682px 99.347px;" transform="matrix(0.999848, -0.017452, 0.017452, 0.999848, 0, -0.000001)"/>
    <path d="M 522.248 153.533 C 519.547 155.974 514.616 157.391 511.231 156.697 C 507.84 156.005 507.285 153.467 509.982 151.028 C 512.675 148.586 517.609 147.171 520.996 147.862 C 524.386 148.555 524.942 151.094 522.248 153.533 Z" style="fill: rgb(28, 29, 30); transform-origin: 578.64px 136.823px;" transform="matrix(0.999848, -0.017452, 0.017452, 0.999848, 0, 0)"/>
    <path d="M 518.808 130.325 C 516.108 132.766 511.177 134.182 507.79 133.489 C 504.401 132.796 503.845 130.258 506.541 127.82 C 509.235 125.378 514.168 123.963 517.557 124.654 C 520.946 125.346 521.503 127.885 518.808 130.325 Z" style="fill: rgb(28, 29, 30); transform-origin: 575.199px 113.614px;" transform="matrix(0.999848, -0.017452, 0.017452, 0.999848, 0, 0.000001)"/>
    <path fill="#1c1d1e" opacity="1.00" d="M 571.252 188.05 C 571.245 183.648 573.784 179.088 577.42 178.95 C 580.076 178.901 583.544 182.413 581.782 189.783 C 580.786 193.398 577.49 196.382 574.487 194.747 C 572.341 193.733 571.407 190.758 571.252 188.05 Z" style=""/>
    <text style="fill: rgb(28, 29, 30); font-family: 'Bruno Ace SC'; font-size: 94px; white-space: pre;" x="123.741" y="141.54" transform="matrix(0.980376, 0, 0, 0.61017, 6.265308, 138.727142)">10,000</text>
    <text style="fill: rgb(51, 51, 51); font-family: Montserrat; font-size: 14.8px; font-weight: 600; letter-spacing: 0.2px; white-space: pre;" x="184.428" y="246.679">THE DICE-ROLLING, RISK-TAKING GAME</text>
  </g>
</svg>